<svg width="25" height="16" viewBox="0 0 25 16" fill="none" xmlns="http://www.w3.org/2000/svg">
<path d="M24.7405 1.77258C24.5796 1.68102 24.3805 1.67744 24.2163 1.76345L18.4802 4.7702V2.96611C18.4785 1.56264 17.2938 0.425326 15.8319 0.423737H2.64831C1.18636 0.425326 0.00165519 1.56264 0 2.96611V13.0045C0.00165519 14.408 1.18636 15.5453 2.64831 15.5469H15.8319C17.2938 15.5453 18.4785 14.408 18.4802 13.0045V11.2332L24.2165 14.2399C24.3805 14.3259 24.5798 14.3226 24.7405 14.231C24.9015 14.1392 25 13.973 25 13.7936V2.20975C25 2.0302 24.9013 1.86415 24.7405 1.77258ZM17.4205 13.0047C17.4196 13.8469 16.7087 14.5291 15.8315 14.5301H2.64831C1.77105 14.5291 1.06036 13.8469 1.05932 13.0047V2.96611C1.06036 2.12415 1.77105 1.44168 2.64831 1.44069H15.8319C16.7089 1.44168 17.4198 2.12415 17.4209 2.96611L17.4205 13.0047ZM23.9407 12.9368L18.4802 10.0746V5.92877L23.9407 3.06681V12.9368Z" fill="black"/>
</svg>
