<svg width="25" height="18" viewBox="0 0 25 18" fill="none" xmlns="http://www.w3.org/2000/svg">
<path d="M24.7405 1.73467C24.5796 1.62784 24.3805 1.62367 24.2163 1.72401L18.4802 5.23189V3.12711C18.4785 1.48973 17.2938 0.162865 15.8319 0.161011H2.64831C1.18636 0.162865 0.00165519 1.48973 0 3.12711V14.8386C0.00165519 16.476 1.18636 17.8028 2.64831 17.8047H15.8319C17.2938 17.8028 18.4785 16.476 18.4802 14.8386V12.772L24.2165 16.2799C24.3805 16.3803 24.5798 16.3763 24.7405 16.2695C24.9015 16.1624 25 15.9685 25 15.7592V2.2447C25 2.03522 24.9013 1.84149 24.7405 1.73467ZM17.4205 14.8388C17.4196 15.8213 16.7087 16.6173 15.8315 16.6185H2.64831C1.77105 16.6173 1.06036 15.8213 1.05932 14.8388V3.12711C1.06036 2.14482 1.77105 1.34861 2.64831 1.34745H15.8319C16.7089 1.34861 17.4198 2.14482 17.4209 3.12711L17.4205 14.8388ZM23.9407 14.7596L18.4802 11.4204V6.58355L23.9407 3.2446V14.7596Z" fill="#F41725"/>
</svg>
