<svg width="25" height="25" viewBox="0 0 25 25" fill="none" xmlns="http://www.w3.org/2000/svg">
<g clip-path="url(#clip0)">
<path d="M2.13659 4.98379C3.3166 4.98379 4.27319 4.0272 4.27319 2.84719C4.27319 1.66719 3.3166 0.710602 2.13659 0.710602C0.956585 0.710602 0 1.66719 0 2.84719C0 4.0272 0.956585 4.98379 2.13659 4.98379Z" fill="black"/>
<path d="M21.3977 7.12088C22.5777 7.12088 23.5343 6.16429 23.5343 4.98428C23.5343 3.80427 22.5777 2.84769 21.3977 2.84769C20.2177 2.84769 19.2611 3.80427 19.2611 4.98428C19.2611 6.16429 20.2177 7.12088 21.3977 7.12088Z" fill="black"/>
<path d="M24.5958 10.0148C24.5468 9.60433 24.2872 9.24857 23.9097 9.07802L21.1943 7.84519L18.8805 6.67339C18.7981 6.60704 18.7095 6.5474 18.6079 6.50331L16.7171 5.69169C16.645 5.6605 16.5693 5.63694 16.4923 5.62046L12.9977 4.89074C12.3593 4.75674 11.7316 5.1672 11.598 5.80655C11.4644 6.44679 11.8744 7.07319 12.5138 7.2063L15.893 7.91242L16.8217 8.31092L15.5822 9.95599L8.96712 7.53352C8.26766 7.27796 7.49031 7.63684 7.23344 8.33894C7.02416 8.91018 7.22898 9.52634 7.68977 9.87539L6.5331 10.2997L5.74286 7.34654L6.17828 7.25305C6.57766 7.16757 6.90441 6.88086 7.04288 6.4966L8.34914 2.86007C8.56997 2.24521 8.25076 1.56847 7.6359 1.34722C7.02328 1.12686 6.34477 1.4456 6.12301 2.06046L5.06608 5.00071L4.5821 5.17703L4.40666 5.21488C4.25572 5.24738 4.1186 5.30926 3.99797 5.39032L2.2608 6.02426C1.73455 6.21613 1.44425 6.80427 1.61256 7.33858L3.98158 14.8824L4.01054 14.865L4.25809 17.4847L1.87837 22.343C1.54938 23.0134 1.82673 23.8233 2.49723 24.151C2.68868 24.2445 2.89173 24.2895 3.09072 24.2895C3.59072 24.2895 4.07111 24.0116 4.30614 23.5326L6.85413 18.3306C6.9641 18.1071 7.00996 17.8578 6.98636 17.6094L6.58297 13.341C6.5825 13.3343 6.57985 13.329 6.57896 13.3223L7.23703 12.927L7.23521 12.9212L9.25783 12.1795L11.2734 13.9434C11.5298 14.1683 11.8473 14.2787 12.1629 14.2787C12.5396 14.2787 12.914 14.1219 13.1807 13.817C13.6722 13.2551 13.6157 12.4012 13.0543 11.9096L13.0529 11.9083L15.1134 12.6629C15.198 12.6937 15.2844 12.7137 15.3703 12.7266L15.3859 12.7484C15.3703 12.8664 15.3641 12.9861 15.381 13.1099L16.007 17.6846L15.694 22.2993C15.6437 23.0437 16.2064 23.6884 16.9509 23.7387C16.982 23.7409 17.0132 23.7418 17.0439 23.7418C17.7487 23.7418 18.3426 23.195 18.3912 22.4818L18.714 17.7304C18.7197 17.6382 18.7167 17.5465 18.7042 17.4552L18.1948 13.7381L19.4179 12.1451L20.8163 10.2707L22.3261 10.9559L22.6431 13.6224C22.7148 14.2239 23.2254 14.6651 23.8167 14.6651C23.863 14.6651 23.9102 14.6629 23.957 14.657C24.6061 14.5796 25.0691 13.9914 24.9916 13.3432L24.5958 10.0148Z" fill="black"/>
</g>
<defs>
<clipPath id="clip0">
<rect width="25" height="25" fill="white"/>
</clipPath>
</defs>
</svg>
