<svg width="43" height="24" viewBox="0 0 43 24" fill="none" xmlns="http://www.w3.org/2000/svg">
<path d="M38.717 9.59319C39.247 9.35526 39.4151 8.94102 39.4265 8.40105H39.4686C39.7317 8.40105 39.9455 8.24208 39.9455 8.0466V2.44021C39.9455 2.24405 39.7317 2.08595 39.4686 2.08595H36.8865C36.3868 1.7995 35.8223 1.57266 35.2118 1.41919L35.3198 1.23693C35.4263 1.05723 35.3171 0.848417 35.0763 0.769588L34.6398 0.625705C34.3995 0.546688 34.1181 0.627771 34.0119 0.807469L33.7762 1.20356C33.6361 1.19617 33.4953 1.19122 33.3532 1.19122H5.5989V0.984287C5.5989 0.788122 5.38519 0.629837 5.12218 0.629837H2.85885C2.59576 0.629837 2.38281 0.788122 2.38281 0.984287V1.19122H1.38984L1.75044 2.72836H0.476545C0.213284 2.72836 0 2.88652 0 3.08268V7.45579C0 7.65195 0.213284 7.81093 0.476545 7.81093H2.94332L3.41473 9.82022H19.0938C19.3272 10.5276 19.9877 11.8506 21.8013 12.8112C22.876 13.38 24.4698 13.6688 26.5401 13.6688C27.2166 13.6688 27.8297 13.6366 28.3043 13.602L31.4372 23.0774C31.4577 23.272 31.6864 23.4187 31.9483 23.4035L42.5594 23.3871C42.8217 23.3721 43.0185 23.2017 42.9986 23.0061L38.717 9.59319ZM26.5405 12.781C24.7487 12.781 23.3491 12.5415 22.4923 12.0879C21.1617 11.3828 20.5801 10.4228 20.3332 9.81916H25.4256C25.0613 10.5128 24.5306 11.2346 23.8777 11.4171C23.6928 11.4683 23.5996 11.622 23.6689 11.7591C23.7223 11.8662 23.8586 11.9318 24.0032 11.9318C24.0449 11.9318 24.0873 11.9268 24.1282 11.9152C25.1299 11.6357 25.8031 10.6277 26.1945 9.8191H27.0545L28.0176 12.73C27.6019 12.7581 27.0928 12.781 26.5405 12.781Z" fill="black"/>
</svg>
