<svg width="19" height="25" viewBox="0 0 19 25" fill="none" xmlns="http://www.w3.org/2000/svg">
<path d="M9.58144 5.47876C7.81956 5.47876 6.3855 6.91282 6.3855 8.6747C6.3855 10.4366 7.81956 11.8706 9.58144 11.8706C11.3433 11.8706 12.7774 10.4366 12.7774 8.6747C12.7774 6.91282 11.3433 5.47876 9.58144 5.47876ZM9.58144 10.9575C8.32269 10.9575 7.29862 9.93344 7.29862 8.6747C7.29862 7.41595 8.32269 6.39188 9.58144 6.39188C10.8402 6.39188 11.8642 7.41595 11.8642 8.6747C11.8642 9.93344 10.8402 10.9575 9.58144 10.9575Z" fill="black"/>
<path d="M15.6916 2.56451C14.0379 0.910843 11.8391 0 9.50058 0C7.16161 0 4.96326 0.910843 3.30959 2.56451C0.24925 5.6244 -0.131066 11.3816 2.48595 14.8698L9.50058 25L16.5047 14.8839C19.1322 11.3816 18.7519 5.6244 15.6916 2.56451ZM15.7642 14.3502L9.50058 23.3956L3.22695 14.3361C0.853283 11.1712 1.19342 5.97184 3.95563 3.21009C5.43672 1.729 7.40587 0.913125 9.50058 0.913125C11.5953 0.913125 13.5644 1.729 15.046 3.21009C17.8082 5.97184 18.1483 11.1712 15.7642 14.3502Z" fill="black"/>
</svg>
