<svg width="25" height="25" viewBox="0 0 25 25" fill="none" xmlns="http://www.w3.org/2000/svg">
<path d="M19.0909 10.3027C18.8051 10.3027 18.532 10.3576 18.2814 10.4572C18.027 9.52515 17.1728 8.83789 16.1612 8.83789C15.5989 8.83789 15.0854 9.05015 14.6963 9.39873C14.3073 9.05015 13.7938 8.83789 13.2315 8.83789C12.9748 8.83789 12.7282 8.88213 12.4991 8.96338V6.5918C12.4991 5.38022 11.5134 4.39453 10.3018 4.39453C9.09024 4.39453 8.10455 5.38022 8.10455 6.5918V13.0549C7.75098 12.7014 7.46084 12.4113 7.46084 12.4113C6.64859 11.599 5.3336 11.5525 4.46885 12.304C3.59986 13.0549 3.45972 14.3636 4.14981 15.2835C4.15762 15.2939 4.16573 15.3042 4.17413 15.3141L7.43179 19.2048C7.78555 19.6272 8.296 19.8891 8.74634 20.12C9.07408 20.2881 9.56939 20.5421 9.56939 20.7033V22.8027C9.56939 24.0143 10.5551 25 11.7667 25H17.626C18.8376 25 19.8233 24.0143 19.8233 22.8027V21.2891C19.8233 20.9993 20.1015 20.6502 20.396 20.2807C20.8142 19.7561 21.2881 19.1615 21.2881 18.3594V12.5C21.2881 11.2884 20.3024 10.3027 19.0909 10.3027ZM19.2505 19.3677C18.8324 19.8923 18.3585 20.487 18.3585 21.2891V22.8027C18.3585 23.2066 18.0299 23.5352 17.626 23.5352H11.7667C11.3628 23.5352 11.0342 23.2066 11.0342 22.8027V20.7033C11.0342 19.6471 10.0982 19.167 9.41475 18.8165C9.07222 18.6408 8.71807 18.4592 8.55489 18.2643L5.31197 14.3912C5.09288 14.0854 5.14175 13.6584 5.42813 13.411C5.71636 13.1604 6.1543 13.1763 6.42505 13.447C6.42505 13.447 8.19966 15.2217 8.31949 15.3413C8.77896 15.7999 9.56934 15.4747 9.56934 14.8229V6.5918C9.56934 6.18794 9.8979 5.85938 10.3018 5.85938C10.7056 5.85938 11.0342 6.18794 11.0342 6.5918V12.5C11.0342 12.9045 11.3621 13.2324 11.7666 13.2324C12.1711 13.2324 12.499 12.9045 12.499 12.5V11.0352C12.499 10.6313 12.8276 10.3027 13.2314 10.3027C13.6353 10.3027 13.9639 10.6313 13.9639 11.0352V12.5C13.9639 12.9045 14.2918 13.2324 14.6963 13.2324C15.1008 13.2324 15.4287 12.9045 15.4287 12.5V11.0352C15.4287 10.6313 15.7573 10.3027 16.1611 10.3027C16.565 10.3027 16.8936 10.6313 16.8936 11.0352V12.5C16.8936 12.9045 17.2215 13.2324 17.626 13.2324C18.0305 13.2324 18.3584 12.9045 18.3584 12.5C18.3584 12.0961 18.687 11.7676 19.0908 11.7676C19.4947 11.7676 19.8232 12.0961 19.8232 12.5V18.3594H19.8233C19.8233 18.6491 19.5451 18.9982 19.2505 19.3677Z" fill="white"/>
<path d="M10.3018 0C9.89727 0 9.56934 0.32793 9.56934 0.732422V2.19727C9.56934 2.60176 9.89727 2.92969 10.3018 2.92969C10.7063 2.92969 11.0342 2.60176 11.0342 2.19727V0.732422C11.0342 0.32793 10.7063 0 10.3018 0Z" fill="white"/>
<path d="M14.2672 1.16143C13.9812 0.875391 13.5174 0.875391 13.2314 1.16143L12.1956 2.19722C11.9096 2.48325 11.9096 2.94697 12.1956 3.23301C12.4815 3.51904 12.9454 3.51904 13.2314 3.23301L14.2672 2.19722C14.5532 1.91118 14.5532 1.44746 14.2672 1.16143Z" fill="white"/>
<path d="M8.40781 2.19722L7.37202 1.16143C7.08603 0.875391 6.62226 0.875391 6.33623 1.16143C6.0502 1.44746 6.0502 1.91118 6.33623 2.19722L7.37202 3.23301C7.65801 3.51904 8.12182 3.51904 8.40781 3.23301C8.69384 2.94697 8.69384 2.48325 8.40781 2.19722Z" fill="white"/>
<path d="M15.4287 4.39453H13.9639C13.5594 4.39453 13.2314 4.72246 13.2314 5.12695C13.2314 5.53145 13.5594 5.85938 13.9639 5.85938H15.4287C15.8332 5.85938 16.1611 5.53145 16.1611 5.12695C16.1611 4.72246 15.8332 4.39453 15.4287 4.39453Z" fill="white"/>
<path d="M6.63953 4.39453H5.17468C4.77019 4.39453 4.44226 4.72246 4.44226 5.12695C4.44226 5.53145 4.77019 5.85938 5.17468 5.85938H6.63953C7.04403 5.85938 7.37196 5.53145 7.37196 5.12695C7.37196 4.72246 7.04403 4.39453 6.63953 4.39453Z" fill="white"/>
</svg>
