<svg width="19" height="21" viewBox="0 0 19 21" fill="none" xmlns="http://www.w3.org/2000/svg">
<path d="M16.0908 6.30273C15.805 6.30273 15.5319 6.35757 15.2812 6.45723C15.0268 5.52515 14.1727 4.83789 13.1611 4.83789C12.5988 4.83789 12.0852 5.05015 11.6962 5.39873C11.3072 5.05015 10.7936 4.83789 10.2314 4.83789C9.97469 4.83789 9.7281 4.88213 9.49895 4.96338V2.5918C9.49895 1.38022 8.51326 0.394531 7.30169 0.394531C6.09012 0.394531 5.10442 1.38022 5.10442 2.5918V9.05493C4.75086 8.70137 4.46072 8.41128 4.46072 8.41128C3.64847 7.59897 2.33348 7.55254 1.46873 8.304C0.599735 9.05488 0.459599 10.3636 1.14969 11.2835C1.1575 11.2939 1.1656 11.3042 1.174 11.3141L4.43167 15.2048C4.78543 15.6272 5.29588 15.8891 5.74622 16.12C6.07395 16.2881 6.56927 16.5421 6.56927 16.7033V18.8027C6.56927 20.0143 7.55496 21 8.76653 21H14.6259C15.8375 21 16.8232 20.0143 16.8232 18.8027V17.2891C16.8232 16.9993 17.1014 16.6502 17.3959 16.2807C17.814 15.7561 18.288 15.1615 18.288 14.3594V8.5C18.288 7.28843 17.3023 6.30273 16.0908 6.30273ZM16.2504 15.3677C15.8323 15.8923 15.3583 16.487 15.3583 17.2891V18.8027C15.3583 19.2066 15.0298 19.5352 14.6259 19.5352H8.76653C8.36268 19.5352 8.03411 19.2066 8.03411 18.8027V16.7033C8.03411 15.6471 7.09812 15.167 6.41463 14.8165C6.0721 14.6408 5.71795 14.4592 5.55476 14.2643L2.31185 10.3912C2.09275 10.0854 2.14163 9.65845 2.42801 9.41099C2.71624 9.16045 3.15418 9.17627 3.42493 9.44702C3.42493 9.44702 5.19954 11.2217 5.31936 11.3413C5.77884 11.7999 6.56922 11.4747 6.56922 10.8229V2.5918C6.56922 2.18794 6.89778 1.85938 7.30164 1.85938C7.7055 1.85938 8.03406 2.18794 8.03406 2.5918V8.5C8.03406 8.90449 8.36199 9.23242 8.76648 9.23242C9.17098 9.23242 9.49891 8.90449 9.49891 8.5V7.03516C9.49891 6.6313 9.82747 6.30273 10.2313 6.30273C10.6352 6.30273 10.9637 6.6313 10.9637 7.03516V8.5C10.9637 8.90449 11.2917 9.23242 11.6962 9.23242C12.1007 9.23242 12.4286 8.90449 12.4286 8.5V7.03516C12.4286 6.6313 12.7572 6.30273 13.161 6.30273C13.5649 6.30273 13.8934 6.6313 13.8934 7.03516V8.5C13.8934 8.90449 14.2214 9.23242 14.6259 9.23242C15.0304 9.23242 15.3583 8.90449 15.3583 8.5C15.3583 8.09614 15.6868 7.76758 16.0907 7.76758C16.4946 7.76758 16.8231 8.09614 16.8231 8.5V14.3594H16.8232C16.8232 14.6491 16.545 14.9982 16.2504 15.3677Z" fill="white"/>
</svg>
