<svg width="25" height="25" viewBox="0 0 25 25" fill="none" xmlns="http://www.w3.org/2000/svg">
<g clip-path="url(#clip0)">
<path d="M21.9958 23.7515H2.90661C1.83983 23.7515 0.88463 23.2 0.351144 22.2761C-0.182152 21.3524 -0.182152 20.2492 0.351144 19.3255L9.89592 2.79367C10.4292 1.86974 11.3844 1.31833 12.4512 1.31833C13.5178 1.31833 14.4732 1.86974 15.0065 2.79367L18.9881 9.68989C19.1229 9.92335 19.0428 10.222 18.8094 10.3569C18.5759 10.4915 18.2772 10.4116 18.1424 10.1782L14.1608 3.28195C13.8041 2.66378 13.1649 2.29489 12.4512 2.29489C11.7375 2.29489 11.0983 2.66378 10.7414 3.28195L1.19686 19.8137C0.839998 20.4319 0.839998 21.1699 1.19686 21.7878C1.55373 22.406 2.19269 22.7751 2.90661 22.7751H21.9958C22.7095 22.7751 23.3487 22.406 23.7055 21.7878C24.0624 21.1699 24.0624 20.4319 23.7055 19.8137L20.3396 13.9839C20.2048 13.7505 20.2849 13.4518 20.5183 13.3169C20.752 13.1821 21.0505 13.2622 21.1853 13.4956L24.5513 19.3255C25.0845 20.2494 25.0845 21.3524 24.5513 22.2761C24.0178 23.2 23.0626 23.7515 21.9958 23.7515Z" fill="black"/>
<path d="M19.664 12.3255C19.5351 12.3255 19.4096 12.2732 19.3182 12.1824C19.2274 12.0916 19.1752 11.9656 19.1752 11.8372C19.1752 11.7088 19.2274 11.5829 19.3182 11.492C19.409 11.4014 19.5351 11.3489 19.664 11.3489C19.7924 11.3489 19.9179 11.4012 20.0087 11.492C20.0999 11.5829 20.1517 11.7088 20.1517 11.8372C20.1517 11.9656 20.0999 12.0916 20.0087 12.1824C19.9179 12.2732 19.7924 12.3255 19.664 12.3255Z" fill="black"/>
<path d="M12.4512 19.6444C11.5359 19.6444 10.7912 18.8997 10.7912 17.9844C10.7912 17.0691 11.5359 16.3244 12.4512 16.3244C13.3665 16.3244 14.1112 17.0691 14.1112 17.9844C14.1112 18.8997 13.3665 19.6444 12.4512 19.6444ZM12.4512 17.3008C12.0743 17.3008 11.7676 17.6075 11.7676 17.9844C11.7676 18.3613 12.0743 18.668 12.4512 18.668C12.8281 18.668 13.1348 18.3613 13.1348 17.9844C13.1348 17.6075 12.8281 17.3008 12.4512 17.3008Z" fill="black"/>
<path d="M12.4512 15.0697C11.5359 15.0697 10.7912 14.3251 10.7912 13.4096V9.29886C10.7912 8.38333 11.5359 7.6387 12.4512 7.6387C13.3665 7.6387 14.1112 8.38333 14.1112 9.29886V13.4096C14.1112 14.3251 13.3665 15.0697 12.4512 15.0697ZM12.4512 8.61527C12.0743 8.61527 11.7676 8.92178 11.7676 9.29886V13.4096C11.7676 13.7867 12.0743 14.0932 12.4512 14.0932C12.8281 14.0932 13.1348 13.7867 13.1348 13.4096V9.29886C13.1348 8.92178 12.8281 8.61527 12.4512 8.61527Z" fill="black"/>
</g>
<defs>
<clipPath id="clip0">
<rect width="25" height="25" fill="white"/>
</clipPath>
</defs>
</svg>
